# xmcd CD database file
#
# Track frame offsets:
#	150
#	19879
#	40631
#	55943
#	75907
#	94031
#	111736
#	126431
#	145253
#	160310
#	180142
#	201151
#	216440
#	233719
#
# Disc length: 3387 seconds
#
# Revision: 0
# Processed by: cddbd v1.5.1PL0 Copyright (c) Steve Scherf et al.
# Submitted via: CDex 1.60beta1
#
DISCID=bd0d390e
DTITLE=Michael Civisca - Love is
DYEAR=0
DGENRE=Jazz
TTITLE0=Love Is Like A Breeze
TTITLE1=I Wish You Love
TTITLE2=Please Don't Talk About Me
TTITLE3=Stormy Weather
TTITLE4=Desafinado
TTITLE5=You Go To My Head
TTITLE6=Just In Time
TTITLE7=I May Love You More
TTITLE8=I Feel Sorry For You
TTITLE9=Just One Of Those Things
TTITLE10=The Very Thought Of You
TTITLE11=Wild Is Love
TTITLE12=If I Ruled The World
TTITLE13=Things Have Changed
EXTD=YEAR: 0
EXTT0=
EXTT1=
EXTT2=
EXTT3=
EXTT4=
EXTT5=
EXTT6=
EXTT7=
EXTT8=
EXTT9=
EXTT10=
EXTT11=
EXTT12=
EXTT13=
PLAYORDER=
